<svg width="41" height="38" viewBox="0 0 41 38" fill="none" xmlns="http://www.w3.org/2000/svg">
<path d="M37.4609 28.2763H23.8404L25.6107 5.28882C25.7106 3.99618 25.2694 2.73433 24.3684 1.73566C23.3732 0.632584 21.9632 0 20.5 0C19.0365 0 17.6264 0.632501 16.6315 1.73533C15.7305 2.73392 15.2895 3.99602 15.3895 5.28865L17.1584 28.2763H3.53756C1.86264 28.2763 0.5 29.6742 0.5 31.3925V33.9243C0.5 34.2452 0.754001 34.5053 1.06733 34.5053H1.42969L0.710398 37.2695C0.665012 37.4439 0.701402 37.63 0.808708 37.773C0.916095 37.9162 1.08232 38 1.2586 38H6.71314H12.1689H15.9044H21.3588H25.0956H30.5499H34.2852H39.7398C39.9161 38 40.0823 37.9161 40.1897 37.7731C40.297 37.6299 40.3334 37.4439 40.288 37.2695L39.5687 34.5053H39.9327C40.246 34.5053 40.5 34.2452 40.5 33.9243V31.3925C40.5 29.6742 39.1366 28.2763 37.4609 28.2763ZM16.5206 5.19711C16.4457 4.23097 16.7811 3.2816 17.4648 2.52378C18.2342 1.67101 19.3689 1.16192 20.5 1.16192C21.6307 1.16192 22.7653 1.67118 23.5349 2.52419C24.2188 3.28202 24.5542 4.23131 24.4794 5.19728L22.7021 28.2763H18.2964L16.5206 5.19711ZM1.63466 31.3924C1.63466 30.3149 2.48833 29.4381 3.53756 29.4381H17.7721H23.2265H37.461C38.511 29.4381 39.3653 30.3148 39.3653 31.3924V33.3433H38.8313C38.831 33.3433 38.8307 33.3432 38.8304 33.3432H34.2852H29.7403C29.74 33.3432 29.7396 33.3433 29.7393 33.3433H29.6417C29.6413 33.3433 29.641 33.3432 29.6407 33.3432H25.0956H20.5489C20.5486 33.3432 20.5483 33.3433 20.5479 33.3433H20.4504C20.45 33.3433 20.4497 33.3432 20.4494 33.3432H15.9043H11.3593C11.359 33.3432 11.3587 33.3433 11.3583 33.3433H11.2604C11.2601 33.3433 11.2598 33.3432 11.2595 33.3432H6.71314H2.16803C2.1677 33.3432 2.16738 33.3433 2.16706 33.3433H1.63466V31.3924ZM30.9859 36.8381L30.3789 34.5053H33.7179V36.8381H30.9859ZM12.6049 36.8381L11.9979 34.5053H15.337V36.8381H12.6049ZM21.7948 36.8381L21.1884 34.5053H24.5283V36.8381H21.7948ZM2.6039 34.5052H6.14581V36.838H1.99694L2.6039 34.5052ZM7.28047 34.5052H10.823L11.4305 36.838H7.28047V34.5052ZM16.4717 36.8381V34.5052H20.0135L20.6205 36.838L16.4717 36.8381ZM25.6629 34.5052H29.2039L29.8114 36.838H25.6628V34.5052H25.6629ZM39.0014 36.8381H34.8526V34.5052H38.3944L39.0014 36.8381Z" fill="black"/>
<path d="M20.5 2.56445C18.9018 2.56445 17.6016 3.89693 17.6016 5.53474C17.6016 7.17064 18.9018 8.50163 20.5 8.50163C22.0972 8.50163 23.3967 7.17064 23.3967 5.53474C23.3967 3.89693 22.0972 2.56445 20.5 2.56445ZM20.5 7.3397C19.5274 7.3397 18.7362 6.53001 18.7362 5.53474C18.7362 4.53756 19.5275 3.72638 20.5 3.72638C21.4716 3.72638 22.2621 4.53756 22.2621 5.53474C22.2621 6.53001 21.4716 7.3397 20.5 7.3397Z" fill="black"/>
<path d="M7.45819 23.0638C7.45819 24.3155 8.45199 25.3339 9.67353 25.3339C10.895 25.3339 11.8887 24.3155 11.8887 23.0638C11.8887 21.8121 10.895 20.7938 9.67353 20.7938C8.45199 20.7938 7.45819 21.8121 7.45819 23.0638ZM10.754 23.0638C10.754 23.6748 10.2693 24.172 9.67353 24.172C9.07759 24.172 8.59285 23.6749 8.59285 23.0638C8.59285 22.4527 9.07759 21.9557 9.67353 21.9557C10.2693 21.9557 10.754 22.4528 10.754 23.0638Z" fill="black"/>
<path d="M3.48059 25.1588C4.70205 25.1588 5.69576 24.1404 5.69576 22.8887C5.69576 21.6371 4.70205 20.6187 3.48059 20.6187C2.25913 20.6187 1.26541 21.6371 1.26541 22.8887C1.26541 24.1405 2.25913 25.1588 3.48059 25.1588ZM3.48059 21.7807C4.07636 21.7807 4.56111 22.2778 4.56111 22.8888C4.56111 23.4998 4.07636 23.9969 3.48059 23.9969C2.88481 23.9969 2.40007 23.4999 2.40007 22.8888C2.40007 22.2778 2.88481 21.7807 3.48059 21.7807Z" fill="black"/>
<path d="M8.59488 18.1692C9.81633 18.1692 10.8101 17.1509 10.8101 15.8992C10.8101 14.6474 9.81633 13.6291 8.59488 13.6291C7.37342 13.6291 6.3797 14.6474 6.3797 15.8992C6.3797 17.1509 7.37342 18.1692 8.59488 18.1692ZM8.59488 14.791C9.19065 14.791 9.67539 15.2881 9.67539 15.8992C9.67539 16.5102 9.19065 17.0073 8.59488 17.0073C7.9991 17.0073 7.51436 16.5102 7.51436 15.8992C7.51436 15.2881 7.9991 14.791 8.59488 14.791Z" fill="black"/>
</svg>
