<svg width="29" height="29" viewBox="0 0 29 29" fill="none" xmlns="http://www.w3.org/2000/svg">
<path d="M10.1268 27.2213V22.7876C10.1268 21.6558 11.0996 20.7383 12.2997 20.7383H16.6866C17.2629 20.7383 17.8156 20.9542 18.2231 21.3386C18.6306 21.7229 18.8596 22.2441 18.8596 22.7876V27.2213C18.8559 27.6919 19.0516 28.1443 19.4031 28.4782C19.7546 28.8122 20.2329 29 20.7319 29H23.7248C25.1226 29.0034 26.4644 28.4821 27.4541 27.5512C28.4438 26.6202 29 25.3561 29 24.0378V11.4069C29 10.3421 28.4995 9.33197 27.6334 8.64876L17.4519 0.980009C15.6809 -0.364585 13.1433 -0.321172 11.4251 1.08312L1.47597 8.64876C0.56892 9.31183 0.0267903 10.3249 0 11.4069V24.0249C0 26.7726 2.36179 29 5.27521 29H8.19981C9.23608 29 10.0783 28.2115 10.0858 27.2342L10.1268 27.2213Z" fill="#FCBA25"/>
</svg>
