<svg width="20" height="20" viewBox="0 0 20 20" fill="none" xmlns="http://www.w3.org/2000/svg">
<path d="M9.49659 0.000113148C4.06836 0.0268386 0.290186 4.69099 0.0123315 9.97165C-0.274997 15.431 4.50055 19.7143 9.9727 19.988C15.6891 20.2738 19.7044 15.405 19.9874 10.0286C20.2785 4.49597 15.4937 0.285679 10.027 0.0122401C9.84853 0.00331616 9.67169 -0.000748826 9.49659 0.000113148ZM9.50028 1.07994C9.65616 1.07925 9.81373 1.08307 9.9727 1.09101C10.2667 1.10572 10.5581 1.13381 10.8464 1.17274L10.5543 1.78489C10.539 1.81688 10.5301 1.85157 10.5282 1.88698C10.5263 1.9224 10.5314 1.95784 10.5432 1.99128C10.555 2.02473 10.5733 2.05552 10.597 2.0819C10.6207 2.10829 10.6493 2.12974 10.6813 2.14505C10.7133 2.16035 10.748 2.1692 10.7834 2.1711C10.8188 2.17299 10.8543 2.16789 10.8877 2.15609C10.9211 2.14428 10.9519 2.12601 10.9783 2.1023C11.0047 2.0786 11.0261 2.04993 11.0414 2.01794L11.4016 1.26343C11.8371 1.34647 12.2638 1.45572 12.6786 1.59138L12.1624 2.27946C12.1398 2.3077 12.1231 2.3402 12.1133 2.37501C12.1035 2.40983 12.1008 2.44626 12.1054 2.48214C12.11 2.51801 12.1217 2.55261 12.1399 2.58387C12.1581 2.61513 12.1823 2.64242 12.2113 2.66411C12.2402 2.68581 12.2732 2.70147 12.3083 2.71016C12.3434 2.71886 12.3799 2.72041 12.4156 2.71473C12.4514 2.70904 12.4856 2.69624 12.5162 2.67708C12.5469 2.65793 12.5734 2.6328 12.5942 2.6032L13.209 1.78331C13.6464 1.95366 14.0682 2.15274 14.4712 2.37858L14.0152 3.26754C13.9978 3.29918 13.987 3.33398 13.9834 3.36986C13.9797 3.40575 13.9833 3.44201 13.9939 3.47649C14.0045 3.51097 14.0219 3.54298 14.0451 3.57063C14.0682 3.59827 14.0967 3.62099 14.1288 3.63745C14.1609 3.6539 14.196 3.66376 14.232 3.66643C14.2679 3.66911 14.3041 3.66455 14.3383 3.65302C14.3724 3.64149 14.404 3.62323 14.431 3.59931C14.458 3.5754 14.4799 3.54631 14.4955 3.51377L14.9357 2.65539C15.2491 2.8545 15.5489 3.07032 15.8337 3.30182L15.2294 4.22557C15.2085 4.25518 15.1937 4.2887 15.186 4.32413C15.1783 4.35957 15.1778 4.39619 15.1846 4.43182C15.1913 4.46745 15.2052 4.50135 15.2253 4.53151C15.2455 4.56166 15.2715 4.58744 15.3018 4.60732C15.3322 4.6272 15.3662 4.64076 15.4019 4.6472C15.4376 4.65364 15.4742 4.65283 15.5095 4.6448C15.5449 4.63678 15.5783 4.62172 15.6077 4.60051C15.6371 4.5793 15.662 4.55239 15.6808 4.52137L16.2454 3.65824C16.5639 3.95021 16.8593 4.26321 17.1291 4.59518L16.5581 5.24266C16.5335 5.26902 16.5144 5.30006 16.5019 5.33393C16.4895 5.3678 16.4839 5.40383 16.4857 5.43988C16.4874 5.47592 16.4963 5.51126 16.5119 5.5438C16.5275 5.57633 16.5495 5.60541 16.5765 5.62931C16.6036 5.65321 16.6351 5.67145 16.6693 5.68295C16.7035 5.69444 16.7397 5.69897 16.7757 5.69625C16.8117 5.69353 16.8467 5.68362 16.8788 5.66711C16.9109 5.65061 16.9394 5.62783 16.9625 5.60014L17.4634 5.03228C17.7167 5.38924 17.9423 5.76447 18.1346 6.15746L17.5219 6.85186C17.4984 6.87844 17.4804 6.9094 17.4689 6.94295C17.4574 6.9765 17.4526 7.01199 17.4548 7.04739C17.457 7.0828 17.4661 7.11742 17.4817 7.14929C17.4973 7.18116 17.519 7.20964 17.5456 7.23312C17.5722 7.2566 17.6032 7.2746 17.6367 7.28611C17.6703 7.29763 17.7058 7.30241 17.7412 7.30021C17.7766 7.298 17.8112 7.28883 17.843 7.27324C17.8749 7.25765 17.9034 7.23594 17.9269 7.20934L18.3734 6.70317C18.7731 7.7071 18.9704 8.80663 18.9091 9.97165C18.6522 14.8536 15.1087 19.1633 10.027 18.9092C9.46718 18.8812 8.91729 18.805 8.38092 18.6888V17.8289C8.38141 17.7928 8.37465 17.7569 8.36104 17.7235C8.34743 17.69 8.32725 17.6596 8.30168 17.6341C8.27612 17.6086 8.24569 17.5885 8.21221 17.5749C8.17872 17.5614 8.14286 17.5547 8.10674 17.5552C8.03524 17.5564 7.9671 17.5858 7.91728 17.6371C7.86746 17.6884 7.84003 17.7574 7.84101 17.8289V18.5576C7.42796 18.4442 7.02539 18.305 6.63518 18.1431L7.00215 17.4097C7.02402 17.3675 7.03436 17.3203 7.03213 17.2728C7.0299 17.2253 7.01517 17.1793 6.98944 17.1393C6.96371 17.0993 6.92788 17.0669 6.88558 17.0452C6.84328 17.0235 6.79601 17.0134 6.74854 17.0158C6.70024 17.0184 6.65353 17.0339 6.61327 17.0607C6.57302 17.0875 6.54071 17.1247 6.51971 17.1682L6.14167 17.9238C5.74278 17.7326 5.35932 17.517 4.99436 17.2779L6.14219 16.1301C6.18124 16.0921 6.2079 16.0432 6.21867 15.9899C6.22945 15.9365 6.22383 15.8811 6.20256 15.831C6.18129 15.7809 6.14536 15.7383 6.09949 15.709C6.05362 15.6797 5.99995 15.6649 5.94553 15.6666C5.87539 15.6687 5.80883 15.698 5.75993 15.7483L4.54461 16.9636C4.24756 16.744 3.96526 16.5084 3.6989 16.2582L4.29311 15.268C4.31808 15.2276 4.33194 15.1813 4.33329 15.1338C4.33465 15.0863 4.32344 15.0393 4.30082 14.9975C4.27819 14.9557 4.24494 14.9207 4.20443 14.8959C4.16392 14.871 4.11758 14.8574 4.07008 14.8562C4.02163 14.855 3.97374 14.8668 3.93143 14.8904C3.88913 14.9141 3.85397 14.9487 3.82965 14.9906L3.30451 15.8664C3.05227 15.5986 2.8197 15.3152 2.60484 15.0202L3.46216 13.9482C3.49526 13.908 3.51602 13.8591 3.52193 13.8073C3.52783 13.7556 3.51864 13.7032 3.49545 13.6565C3.47227 13.6099 3.43608 13.5709 3.39125 13.5444C3.34642 13.5178 3.29487 13.5048 3.24282 13.5069C3.20364 13.5085 3.16527 13.5187 3.1304 13.5366C3.09553 13.5545 3.06498 13.5799 3.04088 13.6108L2.28638 14.5541C2.10565 14.2671 1.94445 13.9689 1.80131 13.6619L2.6523 12.5985C2.6854 12.5582 2.70616 12.5093 2.71206 12.4575C2.71797 12.4058 2.70878 12.3534 2.68559 12.3068C2.6624 12.2601 2.62621 12.2211 2.58139 12.1946C2.53656 12.1681 2.48501 12.1551 2.43296 12.1571C2.39377 12.1588 2.35541 12.1689 2.32054 12.1868C2.28566 12.2048 2.25511 12.2301 2.23102 12.261L1.56351 13.0957C1.42869 12.735 1.32145 12.3632 1.24189 11.9816L2.02223 11.5914C2.07737 11.5647 2.12181 11.5201 2.14823 11.4648C2.17466 11.4096 2.18151 11.3469 2.16765 11.2873C2.15379 11.2276 2.12005 11.1744 2.07197 11.1365C2.02389 11.0985 1.96432 11.078 1.90307 11.0784C1.86067 11.0787 1.81895 11.089 1.78127 11.1084L1.14593 11.4258C1.08614 10.9712 1.0655 10.5048 1.09057 10.0286C1.33129 5.45365 4.3532 1.5071 8.80747 1.11527L8.41888 1.76274C8.40066 1.79317 8.38862 1.8269 8.38344 1.86198C8.37826 1.89707 8.38004 1.93283 8.38868 1.96723C8.39732 2.00163 8.41265 2.03399 8.43379 2.06246C8.45494 2.09093 8.48149 2.11496 8.51192 2.13317C8.54236 2.15139 8.57608 2.16342 8.61116 2.1686C8.64625 2.17378 8.68201 2.172 8.71641 2.16335C8.75081 2.15471 8.78316 2.13937 8.81163 2.11822C8.8401 2.09707 8.86413 2.07052 8.88234 2.04008L9.45757 1.08152C9.47193 1.08139 9.48589 1.08001 9.50028 1.07994ZM10.1045 5.50313C9.88009 5.48196 9.64977 5.56927 9.49606 5.75621C9.24986 6.05532 9.29291 6.4981 9.59202 6.7443C9.89059 6.9905 10.3339 6.94692 10.5801 6.64781C10.826 6.34869 10.7832 5.90645 10.4841 5.66025C10.372 5.56792 10.2392 5.51582 10.1045 5.50313ZM10.0349 8.07246C9.89189 8.07689 9.75647 8.1379 9.6584 8.2421C9.56033 8.3463 9.50763 8.48517 9.51188 8.6282L9.5994 14.2667C9.60164 14.4099 9.66067 14.5463 9.7635 14.646C9.86634 14.7457 10.0046 14.8004 10.1477 14.7982C10.2909 14.796 10.4274 14.7369 10.527 14.6341C10.6267 14.5313 10.6815 14.393 10.6792 14.2498L10.5917 8.61132C10.5916 8.53907 10.577 8.46757 10.5487 8.40107C10.5205 8.33457 10.4792 8.27441 10.4272 8.22416C10.3753 8.17391 10.3139 8.13459 10.2465 8.10854C10.1791 8.08248 10.1071 8.07021 10.0349 8.07246ZM14.1364 13.8518C14.0628 13.8415 13.9857 13.8589 13.9218 13.9071C13.7939 14.0038 13.7682 14.1857 13.8649 14.3136C13.9615 14.4416 14.1434 14.467 14.2714 14.3706C14.3991 14.2739 14.4247 14.0918 14.3283 13.9641C14.28 13.9002 14.21 13.862 14.1364 13.8518ZM12.2394 15.2838C12.1658 15.2735 12.0881 15.291 12.0242 15.3392C11.8963 15.4355 11.8712 15.6177 11.9678 15.7457C12.0645 15.8734 12.2467 15.899 12.3743 15.8026C12.502 15.7062 12.5279 15.5238 12.4313 15.3961C12.383 15.3323 12.313 15.2941 12.2394 15.2838ZM14.167 15.4293C14.0934 15.4191 14.0157 15.437 13.9519 15.4852C13.8242 15.5816 13.7991 15.7638 13.8955 15.8917C13.9921 16.0194 14.1743 16.0445 14.302 15.9481C14.4297 15.8515 14.4548 15.6693 14.3584 15.5416C14.3101 15.4776 14.2406 15.4395 14.167 15.4293Z" fill="#FF10F5"/>
</svg>
