<svg width="20" height="25" viewBox="0 0 20 25" fill="none" xmlns="http://www.w3.org/2000/svg">
<path d="M5.98293 5.83177H7.84538V14.2668H5.98293V5.83177ZM11.9647 5.76876C10.832 5.76876 10.0289 5.84412 9.45533 5.94544V14.2668H11.2949V11.2509C11.4669 11.2756 11.6845 11.2892 11.9286 11.2892C13.0239 11.2892 13.9618 11.0124 14.5954 10.3983C15.0824 9.92142 15.3505 9.2221 15.3505 8.39552C15.3505 7.57018 14.9958 6.87086 14.474 6.4446C13.9257 5.99363 13.1081 5.76876 11.9647 5.76876ZM11.9142 9.82258C11.6472 9.82258 11.4512 9.81022 11.2937 9.77192V7.28353C11.4272 7.24647 11.6833 7.20817 12.062 7.20817C12.9867 7.20817 13.5109 7.67149 13.5109 8.44618C13.5109 9.30983 12.9013 9.82258 11.9142 9.82258ZM10 0C4.47637 0 0 4.59993 0 10.2748C0 15.9496 10 25 10 25C10 25 20 15.9509 20 10.276C20 4.60117 15.5236 0 10 0ZM10.0252 16.5229C6.35806 16.5229 3.38584 13.4674 3.38584 9.69779C3.38584 5.92938 6.35926 2.87511 10.0252 2.87511C13.6936 2.87511 16.6647 5.93061 16.6647 9.69779C16.6647 13.4662 13.6924 16.5229 10.0252 16.5229Z" fill="#EFEBE2"/>
</svg>
