<svg width="20" height="20" viewBox="0 0 20 20" fill="none" xmlns="http://www.w3.org/2000/svg">
<path d="M18.8889 7.27273H16.6667V5C16.6667 3.67392 16.0228 2.40215 14.8768 1.46447C13.7307 0.526784 12.1763 0 10.5556 0H9.44444C7.82368 0 6.26929 0.526784 5.12324 1.46447C3.97718 2.40215 3.33333 3.67392 3.33333 5V7.27273H1.11111C0.816426 7.27273 0.533811 7.36851 0.325437 7.53899C0.117063 7.70948 0 7.94071 0 8.18182V19.0909C0 19.332 0.117063 19.5632 0.325437 19.7337C0.533811 19.9042 0.816426 20 1.11111 20H18.8889C19.1836 20 19.4662 19.9042 19.6746 19.7337C19.8829 19.5632 20 19.332 20 19.0909V8.18182C20 7.94071 19.8829 7.70948 19.6746 7.53899C19.4662 7.36851 19.1836 7.27273 18.8889 7.27273ZM5.55556 5C5.55556 4.15613 5.96528 3.34682 6.69459 2.75012C7.42389 2.15341 8.41305 1.81818 9.44444 1.81818H10.5556C11.587 1.81818 12.5761 2.15341 13.3054 2.75012C14.0347 3.34682 14.4444 4.15613 14.4444 5V7.27273H5.55556V5ZM5 15C4.67036 15 4.34813 14.92 4.07405 14.7702C3.79997 14.6203 3.58635 14.4074 3.4602 14.1582C3.33405 13.909 3.30105 13.6349 3.36536 13.3703C3.42967 13.1058 3.5884 12.8628 3.82149 12.6721C4.05458 12.4814 4.35155 12.3515 4.67485 12.2989C4.99815 12.2463 5.33326 12.2733 5.63781 12.3765C5.94235 12.4797 6.20265 12.6545 6.38578 12.8788C6.56892 13.103 6.66667 13.3667 6.66667 13.6364C6.67443 13.8171 6.63663 13.9973 6.55561 14.1656C6.4746 14.3339 6.35212 14.4868 6.19578 14.6147C6.03944 14.7426 5.85259 14.8429 5.64687 14.9091C5.44115 14.9754 5.22096 15.0063 5 15ZM10 15C9.67037 15 9.34813 14.92 9.07405 14.7702C8.79997 14.6203 8.58635 14.4074 8.4602 14.1582C8.33405 13.909 8.30105 13.6349 8.36536 13.3703C8.42967 13.1058 8.5884 12.8628 8.82149 12.6721C9.05458 12.4814 9.35155 12.3515 9.67485 12.2989C9.99815 12.2463 10.3333 12.2733 10.6378 12.3765C10.9423 12.4797 11.2026 12.6545 11.3858 12.8788C11.5689 13.103 11.6667 13.3667 11.6667 13.6364C11.6744 13.8171 11.6366 13.9973 11.5556 14.1656C11.4746 14.3339 11.3521 14.4868 11.1958 14.6147C11.0394 14.7426 10.8526 14.8429 10.6469 14.9091C10.4412 14.9754 10.221 15.0063 10 15ZM15 15C14.6704 15 14.3481 14.92 14.0741 14.7702C13.8 14.6203 13.5863 14.4074 13.4602 14.1582C13.3341 13.909 13.301 13.6349 13.3654 13.3703C13.4297 13.1058 13.5884 12.8628 13.8215 12.6721C14.0546 12.4814 14.3515 12.3515 14.6748 12.2989C14.9982 12.2463 15.3333 12.2733 15.6378 12.3765C15.9423 12.4797 16.2026 12.6545 16.3858 12.8788C16.5689 13.103 16.6667 13.3667 16.6667 13.6364C16.6744 13.8171 16.6366 13.9973 16.5556 14.1656C16.4746 14.3339 16.3521 14.4868 16.1958 14.6147C16.0394 14.7426 15.8526 14.8429 15.6469 14.9091C15.4412 14.9754 15.221 15.0063 15 15Z" fill="#EFEBE2"/>
</svg>
