<svg width="20" height="20" viewBox="0 0 20 20" fill="none" xmlns="http://www.w3.org/2000/svg">
<path d="M6.24841 0C6.66268 0 6.9985 0.41956 6.9985 0.937114V4.40214L8.87301 7.91964C8.95499 8.07348 8.99873 8.25416 8.99873 8.43898V14.0567C8.99873 14.5743 8.66291 14.9938 8.24864 14.9938H6.99481L6.99575 19.0591C6.99575 19.5766 6.65992 19.9962 6.24566 19.9962C5.86592 19.9962 5.55209 19.6437 5.50242 19.1862L5.49557 19.0591L5.49463 14.9938L3.4994 14.9926L3.5001 19.0629C3.5001 19.5804 3.16427 20 2.75001 20C2.37027 20 2.05644 19.6475 2.00677 19.19L1.99992 19.0629L1.99923 14.9926L0.750086 14.9938C0.335825 14.9938 0 14.5743 0 14.0567V8.43898C0 8.25416 0.0437416 8.07348 0.125723 7.91964L2.00023 4.40214V0.937114C2.00023 0.41956 2.33606 0 2.75032 0H6.24841ZM13.2538 0.00173855H17.7497C18.1295 0.00173855 18.4433 0.354286 18.493 0.811692L18.4998 0.938852L18.4991 4.99794H19.2499C19.6642 4.99794 20 5.4175 20 5.93505V11.5528C20 11.7376 19.9563 11.9183 19.8743 12.0721L17.9998 15.5896V19.0546C17.9998 19.5722 17.6639 19.9918 17.2497 19.9918H13.7516C13.3373 19.9918 13.0015 19.5722 13.0015 19.0546V15.5896L11.127 12.0721C11.045 11.9183 11.0013 11.7376 11.0013 11.5528V5.93505C11.0013 5.4175 11.3371 4.99794 11.7514 4.99794H12.5034L12.5037 0.938852C12.5037 0.464428 12.7859 0.0723461 13.152 0.0102936L13.2538 0.00173855ZM16.9997 1.87597H14.0039L14.0036 4.99794H16.999L16.9997 1.87597Z" fill="#EFEBE2"/>
</svg>
