<svg width="35" height="35" viewBox="0 0 35 35" fill="none" xmlns="http://www.w3.org/2000/svg">
<path d="M27.6613 3.75694C32.1069 6.88194 35 11.993 35 17.7778C35 27.2777 27.1815 34.9791 17.5353 35C7.90324 35.0208 0.0141258 27.2916 1.28792e-05 17.8055C-0.00704357 12.0208 2.8861 6.89582 7.32461 3.76388C8.15021 3.1875 9.30041 3.43055 9.79436 4.29861L10.9093 6.24999C11.3256 6.97916 11.128 7.90277 10.4436 8.40277C7.51513 10.5417 5.64517 13.9305 5.64517 17.7708C5.63812 24.1805 10.9022 29.4444 17.5 29.4444C23.9637 29.4444 29.3972 24.2916 29.3548 17.7014C29.3337 14.1041 27.6119 10.6319 24.5494 8.39582C23.8649 7.89582 23.6744 6.97221 24.0907 6.24999L25.2057 4.29861C25.6996 3.4375 26.8427 3.18055 27.6613 3.75694ZM20.3226 18.3333V1.66666C20.3226 0.743055 19.5675 0 18.629 0H16.371C15.4325 0 14.6774 0.743055 14.6774 1.66666V18.3333C14.6774 19.2569 15.4325 20 16.371 20H18.629C19.5675 20 20.3226 19.2569 20.3226 18.3333Z" fill="black"/>
</svg>
