<svg viewBox="0 0 1024 1024" xmlns="http://www.w3.org/2000/svg"><path d="m705.6 124.9a8 8 0 0 0 -11.6 7.2v64.2c0 5.5 2.9 10.6 7.5 13.6a352.2 352.2 0 0 1 62.2 49.8c32.7 32.8 58.4 70.9 76.3 113.3a355 355 0 0 1 27.9 138.7c0 48.1-9.4 94.8-27.9 138.7a355.92 355.92 0 0 1 -76.3 113.3 353.06 353.06 0 0 1 -113.2 76.4c-43.8 18.6-90.5 28-138.5 28s-94.7-9.4-138.5-28a353.06 353.06 0 0 1 -113.2-76.4 355.92 355.92 0 0 1 -76.3-113.3 355 355 0 0 1 -27.9-138.7c0-48.1 9.4-94.8 27.9-138.7 17.9-42.4 43.6-80.5 76.3-113.3 19-19 39.8-35.6 62.2-49.8 4.7-2.9 7.5-8.1 7.5-13.6v-64.3c0-6-6.3-9.8-11.6-7.2-139.9 70.4-236.4 214.5-238.4 381.5-2.8 238.8 192.5 437.2 431.2 437.7 239 .5 432.8-193.3 432.8-432.4 0-169.2-97-315.7-238.4-386.7zm-225.6 435.1h64c4.4 0 8-3.6 8-8v-464c0-4.4-3.6-8-8-8h-64c-4.4 0-8 3.6-8 8v464c0 4.4 3.6 8 8 8z"/></svg>