<svg width="35" height="38" viewBox="0 0 35 38" fill="none" xmlns="http://www.w3.org/2000/svg">
<path d="M17.5 0C16.123 0 15 1.12305 15 2.5V15C15 16.377 16.123 17.5 17.5 17.5C18.877 17.5 20 16.377 20 15V2.5C20 1.12305 18.877 0 17.5 0ZM0 2.5L5.12695 7.62695C-0.166015 12.9199 -1.50391 21.0156 1.79688 27.7246C5.10742 34.4336 12.334 38.3203 19.7461 37.3535C27.168 36.3867 33.1641 30.791 34.6484 23.4668C36.1328 16.1328 32.7734 8.64258 26.3086 4.88281C25.1172 4.17969 23.584 4.58985 22.8906 5.78125C22.1973 6.97265 22.5977 8.50586 23.7891 9.19922C28.418 11.8945 30.8105 17.2168 29.7461 22.4805C28.6914 27.7344 24.4238 31.709 19.1113 32.4023C13.7891 33.0859 8.65234 30.332 6.28906 25.5176C3.92578 20.7031 4.87305 14.9512 8.66211 11.1621L12.5 15V4.99023C12.5 3.6914 11.377 2.5 10 2.5H0Z" fill="black"/>
</svg>
