<svg width="22" height="22" viewBox="0 0 22 22" fill="none" xmlns="http://www.w3.org/2000/svg">
<path d="M17.875 0H4.125C3.03098 0 1.98177 0.434597 1.20818 1.20818C0.434597 1.98177 0 3.03098 0 4.125L0 17.875C0 18.969 0.434597 20.0182 1.20818 20.7918C1.98177 21.5654 3.03098 22 4.125 22H17.875C18.969 22 20.0182 21.5654 20.7918 20.7918C21.5654 20.0182 22 18.969 22 17.875V4.125C22 3.03098 21.5654 1.98177 20.7918 1.20818C20.0182 0.434597 18.969 0 17.875 0ZM7.5625 1.375V3.4375C7.5625 3.61984 7.63493 3.7947 7.76386 3.92364C7.8928 4.05257 8.06766 4.125 8.25 4.125C8.43234 4.125 8.6072 4.05257 8.73614 3.92364C8.86507 3.7947 8.9375 3.61984 8.9375 3.4375V1.375H15.8125V6.1875H6.1875V1.375H7.5625ZM20.625 17.875C20.625 18.6043 20.3353 19.3038 19.8195 19.8195C19.3038 20.3353 18.6043 20.625 17.875 20.625H4.125C3.39565 20.625 2.69618 20.3353 2.18046 19.8195C1.66473 19.3038 1.375 18.6043 1.375 17.875V4.125C1.375 3.39565 1.66473 2.69618 2.18046 2.18046C2.69618 1.66473 3.39565 1.375 4.125 1.375H4.8125V6.875C4.8125 7.05734 4.88493 7.2322 5.01386 7.36114C5.1428 7.49007 5.31766 7.5625 5.5 7.5625H16.5C16.6823 7.5625 16.8572 7.49007 16.9861 7.36114C17.1151 7.2322 17.1875 7.05734 17.1875 6.875V1.375H17.875C18.6043 1.375 19.3038 1.66473 19.8195 2.18046C20.3353 2.69618 20.625 3.39565 20.625 4.125V17.875ZM11 8.9375C9.98019 8.9375 8.98328 9.23991 8.13534 9.80649C7.2874 10.3731 6.62651 11.1784 6.23625 12.1205C5.84598 13.0627 5.74387 14.0995 5.94283 15.0997C6.14178 16.0999 6.63287 17.0187 7.35398 17.7398C8.0751 18.4609 8.99385 18.952 9.99407 19.1509C10.9943 19.3499 12.031 19.2478 12.9732 18.8575C13.9154 18.4672 14.7207 17.8064 15.2873 16.9584C15.8538 16.1105 16.1562 15.1136 16.1562 14.0938C16.1562 12.7262 15.613 11.4147 14.646 10.4477C13.679 9.48075 12.3675 8.9375 11 8.9375ZM11 17.875C10.2521 17.875 9.52107 17.6532 8.89925 17.2377C8.27743 16.8223 7.79277 16.2317 7.50658 15.5408C7.22039 14.8498 7.14551 14.0896 7.29141 13.3561C7.43731 12.6226 7.79744 11.9488 8.32625 11.42C8.85507 10.8912 9.52882 10.5311 10.2623 10.3852C10.9958 10.2393 11.7561 10.3141 12.447 10.6003C13.138 10.8865 13.7285 11.3712 14.144 11.993C14.5595 12.6148 14.7812 13.3459 14.7812 14.0938C14.7812 15.0966 14.3829 16.0584 13.6737 16.7675C12.9646 17.4766 12.0029 17.875 11 17.875ZM11 12.0312C10.5921 12.0312 10.1933 12.1522 9.85414 12.3788C9.51496 12.6055 9.2506 12.9276 9.0945 13.3045C8.93839 13.6813 8.89755 14.096 8.97713 14.4961C9.05671 14.8962 9.25315 15.2637 9.54159 15.5522C9.83004 15.8406 10.1975 16.037 10.5976 16.1166C10.9977 16.1962 11.4124 16.1554 11.7893 15.9993C12.1662 15.8431 12.4883 15.5788 12.7149 15.2396C12.9415 14.9004 13.0625 14.5017 13.0625 14.0938C13.0625 13.5467 12.8452 13.0221 12.4584 12.6353C12.0716 12.2485 11.547 12.0312 11 12.0312ZM11 14.7812C10.864 14.7812 10.7311 14.7409 10.618 14.6654C10.505 14.5898 10.4169 14.4825 10.3648 14.3568C10.3128 14.2312 10.2992 14.093 10.3257 13.9596C10.3522 13.8263 10.4177 13.7038 10.5139 13.6076C10.61 13.5115 10.7325 13.446 10.8659 13.4195C10.9992 13.3929 11.1375 13.4065 11.2631 13.4586C11.3887 13.5106 11.4961 13.5987 11.5716 13.7118C11.6472 13.8249 11.6875 13.9578 11.6875 14.0938C11.6875 14.2761 11.6151 14.451 11.4861 14.5799C11.3572 14.7088 11.1823 14.7812 11 14.7812Z" fill="#FDFFFE"/>
</svg>
