<svg width="20" height="20" viewBox="0 0 20 20" fill="none" xmlns="http://www.w3.org/2000/svg">
<path d="M10.755 0C11.551 0 12.2718 0.42 12.6698 1.04C12.8634 1.34 12.9925 1.71 12.9603 2.1C12.9387 2.4 13.0356 2.7 13.2077 2.98C13.7563 3.83 14.9719 4.15 15.9185 3.67C16.9835 3.09 18.3282 3.44 18.9414 4.43L19.6621 5.61C20.2861 6.6 19.9418 7.87 18.8661 8.44C17.9517 8.95 17.629 10.08 18.1776 10.94C18.3497 11.21 18.5434 11.44 18.8446 11.58C19.2211 11.77 19.5115 12.07 19.7159 12.37C20.114 12.99 20.0817 13.75 19.6944 14.42L18.9414 15.62C18.5434 16.26 17.8011 16.66 17.0373 16.66C16.6608 16.66 16.2413 16.56 15.897 16.36C15.6173 16.19 15.2946 16.13 14.9504 16.13C13.8854 16.13 12.9925 16.96 12.9603 17.95C12.9603 19.1 11.9706 20 10.7335 20H9.27045C8.02258 20 7.0329 19.1 7.0329 17.95C7.01138 16.96 6.11852 16.13 5.05353 16.13C4.69853 16.13 4.37581 16.19 4.10687 16.36C3.76263 16.56 3.33234 16.66 2.96658 16.66C2.19205 16.66 1.44978 16.26 1.05176 15.62L0.309495 14.42C-0.088531 13.77 -0.110046 12.99 0.28798 12.37C0.460099 12.07 0.782822 11.77 1.14858 11.58C1.44978 11.44 1.64342 11.21 1.82629 10.94C2.36417 10.08 2.04144 8.95 1.12706 8.44C0.0620733 7.87 -0.282165 6.6 0.331009 5.61L1.05176 4.43C1.67569 3.44 3.00961 3.09 4.08536 3.67C5.02126 4.15 6.23685 3.83 6.78548 2.98C6.9576 2.7 7.05441 2.4 7.0329 2.1C7.01138 1.71 7.12972 1.34 7.33411 1.04C7.73213 0.42 8.45288 0.02 9.23818 0H10.755ZM10.0127 7.18C8.32379 7.18 6.9576 8.44 6.9576 10.01C6.9576 11.58 8.32379 12.83 10.0127 12.83C11.7016 12.83 13.0356 11.58 13.0356 10.01C13.0356 8.44 11.7016 7.18 10.0127 7.18Z" fill="#EFEBE2"/>
</svg>
