<svg width="20" height="20" viewBox="0 0 20 20" fill="none" xmlns="http://www.w3.org/2000/svg">
<path d="M0 18.5589C0 18.9551 0.15999 19.2979 0.479968 19.5875C0.799947 19.877 1.19992 20.0141 1.67989 19.9989H18.3454C18.7899 19.9989 19.1809 19.8617 19.5187 19.5875C19.8565 19.3132 20.0164 18.9703 19.9987 18.5589C19.9987 17.8733 19.812 17.18 19.4387 16.4791C19.0654 15.7781 18.5765 15.1534 17.9721 14.6049C17.3677 14.0563 16.6744 13.5459 15.8923 13.0735C15.1101 12.6012 14.3102 12.2431 13.4924 11.9993C14.4701 11.4812 15.2434 10.788 15.8123 9.91943C16.3811 9.05091 16.6656 8.12144 16.6656 7.13102V5.71396C16.6656 4.12929 16.0167 2.78079 14.719 1.66848C13.4213 0.556159 11.8481 0 9.99933 0C8.15057 0 6.57734 0.556159 5.27965 1.66848C3.98196 2.78079 3.33311 4.12929 3.33311 5.71396V7.13102C3.33311 8.13668 3.61754 9.06615 4.18639 9.91943C4.75524 10.7727 5.52852 11.466 6.50623 11.9993C5.67073 12.2583 4.87079 12.6164 4.10639 13.0735C3.342 13.5307 2.64871 14.0411 2.02653 14.6049C1.40435 15.1687 0.915495 15.7934 0.559963 16.4791C0.204431 17.1647 0.0177766 17.858 0 18.5589Z" fill="#EFEBE2"/>
</svg>
