<svg width="79" height="45" viewBox="0 0 79 45" fill="none" xmlns="http://www.w3.org/2000/svg">
<path fill-rule="evenodd" clip-rule="evenodd" d="M0.750402 0.248274C0.438127 0.333876 0.253135 0.49623 0.111527 0.809216L0 1.0554V22.511V43.9665L0.0734644 44.1362C0.349314 44.7741 0.845558 44.9013 1.80776 44.5803C2.26921 44.4264 2.38074 44.3908 2.61771 44.3211C2.67869 44.3032 2.85898 44.2459 3.01839 44.1942C3.47473 44.0457 5.17321 43.5031 5.28658 43.4697C5.34285 43.4532 5.51925 43.3972 5.67866 43.3457C5.83807 43.2939 6.56719 43.0612 7.29877 42.8287C8.03034 42.596 9.05107 42.2702 9.56676 42.1046C10.0826 41.9389 10.5355 41.7951 10.573 41.7847C11.5225 41.5253 12.2326 40.89 12.6484 39.928C12.939 39.2558 12.9122 41.1207 12.9015 22.3451L12.8921 5.62677L12.7974 5.3328C12.5203 4.47392 11.9369 3.73248 11.2589 3.37703C11.0506 3.26776 10.8388 3.1941 9.92487 2.9123C9.84997 2.88908 9.74254 2.85568 9.68626 2.83798C9.62999 2.82007 9.392 2.7473 9.15748 2.67607C8.92317 2.60463 8.60067 2.50487 8.44125 2.454C8.28184 2.40334 8.09767 2.34583 8.03198 2.32637C7.96629 2.3069 7.81282 2.25913 7.69106 2.21997C7.56909 2.18105 7.38492 2.12354 7.28178 2.09213C7.17844 2.06094 6.956 1.99281 6.78718 1.94105C6.61835 1.88929 6.4264 1.83068 6.36092 1.81077C6.29523 1.79109 6.13398 1.74043 6.00281 1.69841C5.70915 1.6044 5.46113 1.52676 5.30356 1.47965C5.23788 1.46018 4.99231 1.3852 4.7578 1.31353C4.52349 1.24165 4.27015 1.16467 4.19505 1.14255C4.12015 1.12021 4.02029 1.08902 3.97343 1.07288C3.87909 1.0408 3.57889 0.94547 3.39369 0.889066C2.75727 0.695524 2.37583 0.57785 2.1317 0.500211C1.97229 0.449559 1.78034 0.390058 1.70544 0.368381C1.63034 0.346705 1.53314 0.313747 1.48934 0.295167C1.39603 0.255795 0.849651 0.221068 0.750402 0.248274ZM62.0865 4.44494C62.0781 4.45379 61.8952 4.47967 61.6801 4.50201C61.1397 4.55841 60.8085 4.59623 60.095 4.68294C59.7573 4.72408 59.3276 4.7754 59.1399 4.7973C58.9525 4.81897 58.6762 4.85237 58.526 4.8714C58.376 4.89042 58.023 4.93178 57.7417 4.96341C57.4603 4.99526 57.1151 5.03618 56.9743 5.05454C56.8337 5.0729 56.5572 5.10652 56.3604 5.12931C56.1633 5.15209 55.8795 5.18549 55.7295 5.2034C55.5793 5.22154 55.2263 5.26246 54.9449 5.29409C54.6635 5.32594 54.3396 5.36819 54.2248 5.38788C54.1102 5.40779 53.9502 5.42393 53.8695 5.42393C53.7887 5.42393 53.6293 5.43942 53.5153 5.45822C53.4011 5.47702 53.0776 5.51905 52.7962 5.55178C52.5148 5.58452 52.1819 5.62721 52.0564 5.64667C51.9308 5.66614 51.7544 5.68251 51.6642 5.68339C50.7455 5.69069 49.7813 6.55842 49.5562 7.58055C49.4811 7.92118 49.4807 36.936 49.5556 37.2857C49.7318 38.1063 50.2984 38.7807 51.0537 39.0687C51.1886 39.1202 51.5606 39.1806 52.2506 39.2631C52.4381 39.2857 52.8756 39.3386 53.2227 39.3808C53.8775 39.4607 54.1632 39.4941 54.7403 39.5582C55.1086 39.5993 56.1299 39.721 56.5992 39.7798C56.7586 39.7997 57.0502 39.834 57.2471 39.8559C57.4441 39.8778 57.7893 39.9192 58.0144 39.9479C58.2395 39.9765 58.585 40.0183 58.7818 40.0404C59.5502 40.1273 59.769 40.1528 60.1803 40.2039C60.4148 40.2331 60.7676 40.2753 60.9647 40.2981C61.1615 40.3209 61.4456 40.3567 61.5956 40.3777C62.8473 40.5525 63.5675 40.1253 63.7496 39.1003C63.8175 38.7177 63.8155 6.10852 63.7475 5.7659C63.6444 5.24632 63.3769 4.85879 62.9718 4.64202C62.6771 4.48409 62.1571 4.36841 62.0865 4.44494Z" fill="#4C7CBF"/>
<path fill-rule="evenodd" clip-rule="evenodd" d="M16.2055 4.35977C15.5839 4.50482 15.1692 4.92691 15.0137 5.5731C14.9207 5.95975 14.9358 38.8944 15.0293 39.2217C15.2982 40.1649 15.9063 40.4868 17.1394 40.3394C17.3944 40.3088 18.0935 40.2262 18.6935 40.1558C19.2932 40.0851 19.9296 40.0101 20.1077 39.9886C20.2858 39.9671 20.4954 39.9423 20.5735 39.9334C20.7864 39.9091 21.9239 39.7736 22.2548 39.733C22.4141 39.7135 22.6901 39.6797 22.8682 39.658C23.0464 39.636 23.5449 39.5774 23.9759 39.5273C24.407 39.4773 24.8978 39.419 25.0665 39.3978C25.2352 39.3767 25.795 39.3096 26.3106 39.2489C27.3624 39.1249 27.4183 39.1163 27.6567 39.0441C28.3834 38.8242 29.0693 38.0133 29.2245 37.1906C29.2971 36.807 29.3001 7.91758 29.2277 7.56481C29.0226 6.56475 28.2039 5.71128 27.35 5.60742C27.2749 5.59834 27.0755 5.57442 26.9068 5.55405C26.7381 5.5339 26.4085 5.4936 26.1742 5.46436C25.9398 5.43513 25.5795 5.39217 25.3732 5.36892C25.1671 5.34567 24.8068 5.30293 24.5724 5.27414C24.077 5.21324 23.65 5.16275 23.1836 5.1096C23.0008 5.08856 22.7208 5.05557 22.5615 5.03564C22.0832 4.97651 21.3732 4.89214 21.0109 4.85139C20.8234 4.83035 20.5551 4.79736 20.4144 4.77787C20.2739 4.7586 19.9288 4.71741 19.6476 4.68663C19.3664 4.65563 19.0756 4.62131 19.0014 4.61045C18.9272 4.59938 18.72 4.57414 18.5413 4.55421C18.3626 4.53428 18.0859 4.50261 17.9266 4.48356C17.7673 4.46452 17.4222 4.42355 17.1598 4.39233C16.7024 4.33785 16.3509 4.32589 16.2055 4.35977Z" fill="#EF4F3F"/>
<path fill-rule="evenodd" clip-rule="evenodd" d="M32.8199 5.96622C32.4157 6.08846 32.3249 6.12699 32.1476 6.25144C31.8811 6.43857 31.5842 6.79577 31.4591 7.07967C31.2343 7.58944 31.2509 6.30947 31.2605 22.4826L31.2693 37.1654L31.3513 37.4105C31.5237 37.9247 31.8999 38.3816 32.3341 38.6044C32.7553 38.8203 32.3711 38.8099 39.4733 38.7992L45.9923 38.7893L46.2307 38.6823C46.8826 38.39 47.2617 37.915 47.4265 37.1838C47.4942 36.8832 47.4946 7.84987 47.4269 7.54648C47.2497 6.75236 46.6749 6.13895 45.9557 5.97596C45.6688 5.91108 33.0334 5.90155 32.8199 5.96622Z" fill="#FCBA25"/>
<path fill-rule="evenodd" clip-rule="evenodd" d="M77.3808 0.053918C77.2307 0.0909001 77.0391 0.145155 76.9547 0.174608C76.8704 0.203839 76.7324 0.248794 76.648 0.274482C76.5637 0.299948 76.4537 0.337152 76.4038 0.356861C76.3539 0.37657 76.2619 0.406244 76.1993 0.422853C76.1367 0.439462 75.848 0.53092 75.5574 0.625922C75.2669 0.720924 74.9755 0.812161 74.9098 0.828549C74.8442 0.844715 74.6974 0.892769 74.5833 0.934845C74.4692 0.97692 74.2929 1.0356 74.1913 1.06528C74.0115 1.11776 73.5887 1.25152 73.0014 1.44152C72.8421 1.49312 72.612 1.56753 72.4902 1.60694C72.3683 1.64636 72.2074 1.69685 72.1323 1.719C72.0573 1.74136 71.9346 1.78056 71.8597 1.80625C71.7847 1.83194 71.662 1.87158 71.5869 1.89439C71.5121 1.9172 71.3434 1.97034 71.2121 2.01242C70.9655 2.09148 70.7326 2.16478 70.4964 2.23763C70.4214 2.26089 70.2527 2.31647 70.1216 2.36142C69.9903 2.40638 69.8216 2.4613 69.7466 2.48366C69.6717 2.50581 69.4799 2.56626 69.3206 2.61808C69.1613 2.6699 68.9695 2.7308 68.8947 2.75361C68.6841 2.81783 68.5323 2.86611 68.3835 2.91638C68.3084 2.94162 68.178 2.98281 68.0937 3.00783C66.9699 3.34245 66.1223 4.29202 65.8603 5.50955C65.7685 5.93673 65.7867 38.9168 65.8789 39.3094C66.1425 40.43 67.0101 41.3886 68.0256 41.6809C68.1661 41.7212 69.1094 42.0109 70.1216 42.3242C71.1338 42.6376 71.9926 42.9029 72.0301 42.914C72.0675 42.9248 73.0415 43.2282 74.1941 43.5878C75.347 43.9475 76.3439 44.2573 76.4095 44.2765C76.6097 44.3348 76.7183 44.3678 77.1056 44.4874C77.9123 44.7365 78.4331 44.5494 78.6417 43.9355C78.7096 43.736 78.71 43.6436 78.71 22.2728V0.810611L78.6151 0.607763C78.362 0.0663191 77.9955 -0.0979965 77.3808 0.053918Z" fill="#31B161"/>
</svg>
