<svg width="125" height="125" viewBox="0 0 125 125" fill="none" xmlns="http://www.w3.org/2000/svg">
<path d="M125 62.5C125 97.0178 97.0178 125 62.5 125C27.9822 125 0 97.0178 0 62.5C0 27.9822 27.9822 0 62.5 0C97.0178 0 125 27.9822 125 62.5Z" fill="#2B0A0A"/>
<path d="M78.8706 29.8C78.4706 30.6 76.6039 30.8667 74.8706 30.4667C72.4706 29.8 71.4039 30.2 70.7373 31.9333C70.3373 33.2667 68.7373 35.2667 67.2706 36.6C64.8706 38.4667 64.7373 39 66.3373 40.8667C67.5373 42.4667 67.6706 43.5333 66.6039 44.6C64.6039 46.6 66.0706 49.6667 69.1373 49.6667C70.4706 49.6667 71.6706 50.6 71.6706 51.6667C71.6706 54.4667 75.2706 55.6667 77.5373 53.8C78.7373 52.7333 79.6706 52.7333 80.2039 53.5333C81.5373 55.5333 84.6039 53.9333 85.4039 50.8667C85.8039 49.5333 87.0039 48.3333 88.0706 48.3333C89.6706 48.3333 90.0706 46.8667 89.8039 41.2667C89.6706 36.8667 89.0039 34.3333 87.9373 34.2C87.1373 34.0667 85.8039 33.9333 85.0039 33.8C84.3373 33.8 83.6706 32.8667 83.6706 31.8C83.6706 29.5333 80.0706 27.9333 78.8706 29.8ZM85.6706 36.3333C87.1373 36.3333 87.5373 37.1333 86.8706 39.5333C86.4706 41.2667 86.7373 43.1333 87.6706 43.6667C88.7373 44.3333 88.3373 45.2667 86.4706 46.6C84.8706 47.6667 83.6706 49.2667 83.6706 50.0667C83.6706 52.4667 74.8706 51.8 72.3373 49.2667C71.1373 47.9333 69.8039 47 69.2706 47C68.7373 47 68.3373 45.1333 68.3373 42.7333C68.3373 38.0667 73.2706 31.5333 75.5373 33C76.3373 33.4 78.0706 33.2667 79.2706 32.4667C81.1373 31.5333 81.9373 31.8 82.6039 33.8C83.1373 35.1333 84.4706 36.3333 85.6706 36.3333Z" fill="#31B161"/>
<path d="M73.8039 37.1333C71.1372 39.6667 71.0039 44.8667 73.5372 46.8667C76.8706 49.6667 82.7372 48.0667 84.2039 44.0667C86.4706 37.4 78.6039 32.2 73.8039 37.1333ZM79.6706 41.6667C79.6706 42.3333 78.7372 43 77.5372 43C76.4706 43 75.9372 42.3333 76.3372 41.6667C76.7372 40.8667 77.6706 40.3333 78.4706 40.3333C79.1372 40.3333 79.6706 40.8667 79.6706 41.6667Z" fill="#EF4F3F"/>
<path d="M38.6039 43.1333C37.2706 45.1333 35.9372 45.6667 33.6706 45.1333C29.6706 44.0667 27.5372 47.4 28.6039 52.6C29.1372 55.2667 28.7372 56.6 27.1372 57.1333C23.9372 58.3333 24.4706 63.9333 27.8039 64.7333C29.8039 65.2667 30.4706 66.3333 30.0706 68.7333C29.5372 73.5333 32.4706 76.3333 37.1372 75.4C39.9372 74.8667 41.1372 75.2667 41.8039 76.8667C43.0039 79.9333 48.4706 79.5333 49.4039 76.3333C49.9372 74.4667 51.2706 73.6667 53.9372 73.6667C59.0039 73.6667 61.0039 71.4 60.0706 66.8667C59.5372 64.0667 59.9372 62.8667 61.5372 62.2C64.7372 61 64.3372 54.8667 61.0039 54.0667C59.0039 53.5333 58.3372 52.2 58.3372 49C58.3372 44.2 56.6039 43 51.2706 43.9333C48.7372 44.4667 47.4039 43.9333 46.8706 42.4667C45.6706 39.4 40.6039 39.8 38.6039 43.1333ZM45.6706 43.9333C46.7372 45.2667 49.2706 46.2 51.8039 46.3333C55.6706 46.3333 56.0706 46.7333 56.3372 50.2C56.3372 52.3333 57.0039 54.3333 57.6706 54.6C62.4706 56.3333 63.0039 57.5333 59.9372 60.7333C57.8039 62.8667 57.0039 65.2667 57.2706 67.8C57.6706 71.2667 57.2706 71.6667 54.0706 71.2667C51.5372 71 49.9372 71.6667 48.7372 73.5333C46.7372 76.8667 44.6039 77.1333 42.3372 74.3333C41.2706 73 39.0039 72.3333 36.6039 72.6C33.0039 73 32.6039 72.6 32.4706 69.2667C32.3372 66.8667 31.0039 64.4667 29.0039 63C25.6706 60.4667 25.6706 60.4667 28.3372 58.4667C30.0706 57.2667 31.0039 55 31.0039 52.0667C31.1372 49.1333 31.6706 47.8 32.8706 48.0667C35.9372 48.7333 39.5372 46.8667 40.3372 44.2C41.4039 41 43.5372 40.8667 45.6706 43.9333Z" fill="#EF4F3F"/>
<path d="M37.1372 50.6C31.1372 55.4 32.3372 66.4667 39.2706 69.5333C44.2039 71.8 47.0039 71.2667 51.5372 67.4C54.6039 64.7333 55.6706 62.6 55.6706 59.2667C55.6706 50.2 44.2039 44.8667 37.1372 50.6ZM40.7372 55.5333C39.8039 56.6 38.7372 57.1333 38.4706 57C37.8039 56.2 39.8039 53.6667 41.1372 53.6667C41.8039 53.6667 41.6706 54.4667 40.7372 55.5333ZM47.4039 59.4C47.9372 62.0667 44.0706 63.9333 42.0706 61.9333C40.0706 59.9333 41.9372 56.0667 44.6039 56.6C45.9372 56.8667 47.1372 58.0667 47.4039 59.4ZM44.3372 64.3333C46.0706 64.3333 48.2039 63.2667 48.8706 61.9333C49.6706 60.7333 50.3372 60.3333 50.3372 61C50.3372 63.4 47.4039 65.6667 44.3372 65.6667C41.2706 65.6667 38.3372 63.4 38.3372 61C38.3372 60.3333 39.0039 60.7333 39.8039 61.9333C40.4706 63.2667 42.6039 64.3333 44.3372 64.3333Z" fill="#4C7CBF"/>
<path d="M75.5372 61.8C74.6039 63.6667 73.2706 64.3333 71.6706 63.9333C68.3372 63.1333 65.9372 66.0667 67.0039 69.6667C67.5372 71.4 67.1372 72.6 65.8039 73.1333C62.8706 74.3333 63.1372 77.9333 66.3372 80.7333C67.9372 82.0667 68.7372 83.6667 68.3372 84.4667C66.8706 86.7333 70.2039 89.4 73.5372 88.7333C75.2706 88.3333 77.1372 88.7333 77.5372 89.5333C78.8706 91.6667 83.2706 91.4 84.0706 89.1333C84.4706 88.0667 86.4706 87 88.6039 86.7333C91.8039 86.3333 92.3372 85.8 91.9372 82.6C91.6706 80.3333 92.3372 78.7333 93.6706 78.2C96.6039 77 96.2039 72.7333 92.8706 71C91.1372 70.0667 90.4706 68.7333 90.8706 67.4C92.0706 64.2 89.1372 61.5333 85.5372 62.4667C83.2706 63 82.0706 62.6 81.5372 61.1333C80.3372 58.2 77.4039 58.4667 75.5372 61.8ZM81.1372 63.8C82.2039 65.1333 83.9372 65.5333 85.9372 65C88.4706 64.4667 89.0039 64.8667 89.0039 67.2667C89.0039 68.8667 90.0706 71.2667 91.2706 72.6C93.0039 74.4667 93.1372 75.4 91.9372 76.6C91.0039 77.5333 90.3372 79.8 90.3372 81.8C90.3372 84.7333 89.8039 85.2667 87.8039 84.7333C86.2039 84.3333 84.6039 85.1333 83.1372 87.1333C81.1372 90.0667 81.0039 90.0667 78.4706 87.8C76.8706 86.3333 74.6039 85.6667 73.0039 86.0667C70.8706 86.6 70.3372 86.0667 70.3372 83.6667C70.3372 81.9333 69.1372 79.6667 67.6706 78.6C65.2706 76.8667 65.1372 76.4667 67.0039 75C68.0706 74.0667 69.0039 71.6667 69.0039 69.5333C69.0039 66.8667 69.5372 65.9333 70.8706 66.4667C71.9372 66.8667 73.9372 66.0667 75.2706 64.6C78.2039 61.2667 78.8706 61.1333 81.1372 63.8Z" fill="#4C7CBF"/>
<path d="M73.8039 68.4667C69.6706 71.8 69.0039 78.7333 72.7372 81.9333C75.9372 84.8667 80.6039 86.0667 81.6706 84.3333C82.0706 83.5333 83.0039 83.2667 83.6706 83.6667C85.1372 84.6 89.0039 78.3333 89.0039 75C89.0039 71.5333 83.2706 65.6666 79.9372 65.6666C78.4706 65.6666 75.8039 66.8667 73.8039 68.4667ZM81.9372 74.4667C82.8706 76.8667 79.6706 79.5333 77.8039 77.6667C76.3372 76.2 77.6706 72.3333 79.6706 72.3333C80.4706 72.3333 81.4039 73.2667 81.9372 74.4667Z" fill="#FCBA25"/>
<path d="M46.2296 15.7695C42.5807 21.4202 38.9317 22.927 32.7286 21.4202C21.7819 18.4065 15.9436 27.8243 18.8627 42.516C20.3223 50.0502 19.2276 53.8173 14.8489 55.3241C6.09157 58.7145 7.55113 74.5363 16.6734 76.7966C22.1468 78.3034 23.9712 81.3171 22.8765 88.0979C21.417 101.659 29.4446 109.57 42.2158 106.933C49.8785 105.427 53.1625 106.557 54.9869 111.077C58.271 119.742 73.2315 118.611 75.7857 109.57C77.2453 104.296 80.8942 102.036 88.192 102.036C102.058 102.036 107.531 95.6321 104.977 82.8239C103.517 74.913 104.612 71.5226 108.991 69.6391C117.748 66.2487 116.653 48.92 107.531 46.6598C102.058 45.1529 100.233 41.3858 100.233 32.3448C100.233 18.7832 95.4898 15.3928 80.8942 18.0298C73.9613 19.5366 70.3124 18.0298 68.8528 13.886C65.5688 5.22166 51.7029 6.35179 46.2296 15.7695ZM65.5688 18.0298C68.4879 21.7969 75.4208 24.4339 82.3537 24.8106C92.9356 24.8106 94.0303 25.9407 94.76 35.7352C94.76 41.7625 96.5845 47.4132 98.4089 48.1666C111.545 53.0638 113.005 56.4542 104.612 65.4953C98.7738 71.5226 96.5845 78.3034 97.3143 85.4609C98.4089 95.2554 97.3143 96.3855 88.5569 95.2554C81.624 94.5019 77.2453 96.3855 73.9613 101.659C68.4879 111.077 62.6496 111.831 56.4465 103.92C53.5274 100.153 47.3242 98.269 40.7562 99.0225C30.9041 100.153 29.8095 99.0225 29.4446 89.6047C29.0797 82.8239 25.4308 76.0431 19.9574 71.8993C10.8351 64.7418 10.8351 64.7418 18.133 59.0912C22.8765 55.7008 25.4308 49.2967 25.4308 41.0091C25.7957 32.7215 27.2552 28.9544 30.5393 29.7078C38.9317 31.5914 48.7838 26.3174 50.9731 18.7832C53.8923 9.74218 59.7305 9.36547 65.5688 18.0298Z" fill="#FCBA25"/>
</svg>
